<svg width="40" height="40" viewBox="0 0 40 40" fill="none" xmlns="http://www.w3.org/2000/svg">
    <g clip-path="url(#clip0_637_2662)">
        <path d="M20 40C31.0457 40 40 31.0457 40 20C40 8.9543 31.0457 0 20 0C8.9543 0 0 8.9543 0 20C0 31.0457 8.9543 40 20 40Z"
              fill="#33CC66"/>
        <path fill-rule="evenodd" clip-rule="evenodd"
              d="M10.9231 19.0741H15.8462C16.7077 19.0741 17.5077 18.7037 18.1231 18.1481C18.6769 17.5926 19.0462 16.7901 19.0462 15.8642V10.9259V10H19.9692H29.0769H30V10.9259V20V20.9259H29.0769H24.1538C23.2923 20.9259 22.4923 21.2963 21.8769 21.8519C21.3231 22.4074 20.9538 23.2099 20.9538 24.1358V29.0741V30H20.0308H10.9231H10V29.1358V20.0617V19.1358V19.0741H10.9231ZM15.8462 20.9877H11.8462V28.2099H19.0462V24.1975C19.0462 22.7778 19.6 21.5432 20.5231 20.6173C21.4462 19.6914 22.7385 19.1358 24.0923 19.1358H28.0923V11.8519H20.9538V15.8642C20.9538 17.284 20.4 18.5185 19.4769 19.4444C18.5538 20.4321 17.2615 20.9877 15.8462 20.9877Z"
              fill="white"/>
    </g>
    <defs>
        <clipPath id="clip0_637_2662">
            <rect width="40" height="40" fill="white"/>
        </clipPath>
    </defs>
</svg>
